<?xml version="1.0" standalone="no"?>
<!DOCTYPE svg PUBLIC "-//W3C//DTD SVG 20010904//EN"
 "http://www.w3.org/TR/2001/REC-SVG-20010904/DTD/svg10.dtd">
<svg version="1.0" xmlns="http://www.w3.org/2000/svg"
 width="800.000000pt" height="833.000000pt" viewBox="0 0 800.000000 833.000000"
 preserveAspectRatio="xMidYMid meet">

<g transform="translate(0.000000,833.000000) scale(0.100000,-0.100000)"
fill="#000000" stroke="none">
<path d="M3785 7563 c-657 -43 -1313 -288 -1845 -689 -653 -492 -1099 -1170
-1295 -1967 -72 -292 -100 -569 -92 -907 6 -246 20 -379 63 -595 181 -906 722
-1707 1499 -2220 814 -538 1819 -706 2775 -465 617 156 1175 479 1631 946 540
554 873 1255 965 2034 21 175 24 572 6 735 -63 556 -225 1035 -507 1490 -634
1025 -1771 1655 -2970 1643 -99 -1 -202 -3 -230 -5z m283 -544 l47 -144 158
-3 159 -3 -124 -89 c-67 -50 -124 -94 -126 -99 -2 -5 17 -72 42 -148 25 -77
46 -142 46 -146 0 -4 -57 34 -126 85 -146 106 -113 108 -279 -14 -58 -43 -105
-75 -105 -70 0 4 20 68 45 142 24 74 45 140 45 146 0 6 -56 51 -124 100 l-124
89 156 5 157 5 48 148 c27 82 51 146 54 144 2 -3 25 -70 51 -148z m-1141 -511
l157 -3 -122 -88 c-75 -54 -122 -95 -122 -106 0 -9 20 -77 45 -151 25 -73 44
-135 42 -136 -1 -1 -58 38 -125 88 -68 49 -130 87 -137 84 -8 -3 -63 -40 -122
-84 -59 -43 -113 -81 -119 -85 -6 -4 11 62 37 145 27 84 45 154 41 157 -4 3
-61 44 -126 91 l-118 85 158 5 158 5 43 135 c24 74 46 142 49 150 3 8 28 -54
55 -137 l50 -152 156 -3z m2483 149 l46 -142 157 -5 157 -5 -116 -85 c-64 -47
-121 -88 -127 -91 -6 -4 11 -68 41 -159 59 -175 70 -170 -100 -44 -56 41 -105
74 -110 74 -4 0 -63 -40 -131 -89 -67 -49 -123 -88 -124 -87 -1 1 18 64 43
141 24 77 44 145 44 151 0 7 -55 52 -122 100 l-123 89 157 3 157 3 47 149 c26
83 50 147 53 144 3 -3 26 -69 51 -147z m-3670 -980 l46 -142 159 -5 159 -5
-115 -83 c-63 -46 -120 -87 -128 -92 -11 -6 -4 -36 37 -159 28 -83 49 -151 46
-151 -2 0 -60 41 -129 91 -145 105 -109 107 -277 -17 -56 -41 -103 -73 -105
-71 -1 2 19 69 46 150 l49 146 -130 96 -131 95 161 0 161 0 48 149 c26 82 50
147 53 145 2 -3 25 -69 50 -147z m4859 -149 l159 -3 -128 -92 -128 -93 43
-132 c24 -73 47 -142 51 -152 9 -24 9 -24 -126 74 -58 42 -111 79 -118 84 -8
5 -57 -25 -137 -83 -69 -50 -127 -91 -129 -91 -2 0 18 66 44 147 27 81 47 150
45 154 -3 3 -60 46 -127 95 l-122 89 159 5 158 5 43 134 c24 74 46 141 49 150
4 9 27 -47 56 -136 l50 -153 158 -2z m-3636 -650 c35 -90 146 -366 246 -615
99 -248 181 -456 181 -463 0 -7 -42 -10 -136 -8 l-136 3 -27 70 c-15 39 -40
102 -55 142 l-28 72 -246 -2 -246 -2 -27 -70 c-14 -38 -39 -103 -54 -142 l-27
-73 -135 0 c-74 0 -133 4 -131 9 2 5 111 286 243 625 l239 616 137 0 137 0 65
-162z m1052 -255 c60 -227 112 -407 116 -400 4 6 24 75 44 152 107 410 147
565 161 613 l15 52 189 0 190 0 0 -625 0 -626 -117 3 -118 3 -5 468 -5 468
-98 -393 c-54 -216 -107 -428 -119 -470 l-20 -78 -119 0 c-105 0 -120 2 -126
18 -4 9 -60 226 -124 482 l-117 465 -1 -482 -1 -483 -120 0 -120 0 0 625 0
625 193 -2 192 -3 110 -412z m1225 -103 l0 -510 313 -2 312 -3 0 -105 0 -105
-437 -3 c-347 -2 -438 0 -439 10 -1 7 -1 272 0 588 1 316 1 590 1 608 l0 32
125 0 125 0 0 -510z m-3859 -188 l46 -137 156 -3 c86 -1 157 -6 157 -10 -1 -4
-55 -45 -121 -92 -66 -47 -122 -88 -125 -91 -2 -4 19 -72 46 -153 27 -80 46
-146 42 -146 -4 0 -62 41 -130 91 l-123 90 -125 -91 c-69 -50 -127 -90 -129
-88 -3 3 6 33 62 204 l30 91 -123 89 c-68 49 -124 92 -124 96 0 4 70 9 156 10
l155 3 47 142 c25 79 48 140 51 137 3 -3 27 -67 52 -142z m5364 26 c60 -189
33 -168 212 -168 84 0 153 -3 153 -7 0 -5 -56 -48 -124 -96 l-123 -88 47 -150
c26 -82 46 -149 44 -149 -3 0 -60 41 -129 90 l-125 91 -122 -90 c-68 -50 -126
-91 -130 -91 -4 0 15 66 42 146 27 81 48 150 46 153 -3 3 -58 44 -125 91 -66
47 -120 88 -121 92 0 3 68 7 152 7 83 1 154 4 158 6 3 2 26 67 50 144 25 77
48 141 51 141 3 0 23 -55 44 -122z m-4450 -950 c21 -51 39 -99 42 -105 3 -8
-4 -13 -20 -13 -18 0 -27 7 -31 25 -5 21 -12 25 -46 25 -34 0 -42 -4 -50 -25
-6 -15 -17 -25 -30 -25 -11 0 -20 2 -20 5 0 7 68 184 76 196 3 5 13 9 24 9 13
0 27 -23 55 -92z m145 30 c41 -65 41 -66 44 17 1 33 5 40 21 40 19 0 20 -8 23
-102 3 -103 3 -103 -21 -103 -19 0 -33 14 -63 63 l-39 62 -3 -62 c-3 -55 -6
-63 -22 -63 -19 0 -20 8 -20 105 0 99 1 105 20 105 14 0 33 -19 60 -62z m273
56 c12 -12 -6 -34 -29 -34 -23 0 -24 -4 -26 -62 0 -35 -2 -67 -3 -73 -2 -5 -3
-16 -4 -22 0 -7 -10 -13 -21 -13 -18 0 -20 7 -20 85 l0 85 -30 0 c-28 0 -40
17 -23 33 8 9 147 9 156 1z m67 -99 c0 -98 -1 -105 -20 -105 -19 0 -20 7 -20
105 0 98 1 105 20 105 19 0 20 -7 20 -105z m190 63 c25 -97 25 -97 44 -25 17
63 20 67 46 67 l29 0 3 -92 c4 -109 2 -118 -23 -118 -17 0 -19 8 -20 63 l-1
62 -16 -62 c-13 -53 -19 -63 -37 -63 -18 0 -24 10 -37 63 l-16 62 -1 -62 c-1
-56 -3 -63 -21 -63 -19 0 -20 7 -20 105 l0 105 30 0 c26 0 30 -5 40 -42z m321
13 c23 -23 29 -38 29 -71 0 -74 -31 -109 -98 -110 -79 0 -123 78 -86 155 29
63 105 75 155 26z m140 -36 c23 -36 42 -65 43 -65 0 0 1 28 1 62 0 56 2 63 20
63 19 0 20 -7 20 -100 0 -94 -1 -100 -21 -103 -16 -2 -30 11 -60 60 l-39 63
-3 -62 c-3 -55 -6 -63 -22 -63 -19 0 -20 7 -20 98 0 54 3 102 7 105 17 18 37
2 74 -58z m277 43 c3 -15 -5 -18 -52 -18 -49 0 -56 -2 -56 -20 0 -17 7 -20 50
-20 43 0 50 -3 50 -20 0 -17 -7 -20 -50 -20 -47 0 -50 -2 -50 -25 0 -24 3 -25
55 -25 49 0 55 -2 55 -20 0 -19 -5 -21 -77 -18 l-78 3 -2 90 c-1 50 0 96 2
103 3 9 25 12 77 10 60 -2 73 -6 76 -20z m88 -19 l26 -42 22 39 c13 24 30 40
44 42 29 4 28 0 -13 -68 -25 -41 -35 -69 -35 -99 0 -34 -3 -41 -20 -41 -17 0
-20 7 -20 41 0 30 -10 58 -35 99 -41 67 -41 70 -15 70 12 0 30 -16 46 -41z
m262 -46 l3 -82 47 -3 c35 -2 48 -7 50 -20 3 -16 -6 -18 -72 -18 l-76 0 0 98
c0 102 3 115 30 110 12 -3 16 -21 18 -85z m262 -3 c54 -128 53 -120 26 -120
-15 0 -27 9 -34 25 -9 20 -19 25 -47 25 -28 0 -38 -5 -47 -25 -10 -23 -48 -36
-48 -16 0 5 16 52 37 105 47 126 62 127 113 6z m110 16 c0 -75 13 -106 44
-106 27 0 36 26 36 102 0 71 2 78 20 78 18 0 20 -7 20 -87 0 -106 -11 -123
-78 -123 -71 0 -82 16 -82 122 0 81 2 88 20 88 18 0 20 -7 20 -74z m241 9 c23
-36 42 -65 43 -65 0 0 1 27 2 60 0 65 5 76 29 66 13 -5 15 -22 13 -103 -3 -91
-5 -98 -24 -101 -16 -2 -30 11 -60 60 l-39 63 -3 -62 c-3 -55 -6 -63 -22 -63
-19 0 -20 8 -20 105 0 99 1 105 20 105 15 0 33 -20 61 -65z m271 38 c14 -14
22 -39 26 -72 4 -46 2 -53 -26 -81 -27 -26 -37 -30 -86 -30 l-56 0 0 106 0
106 60 -4 c44 -3 66 -10 82 -25z m208 8 c0 -17 -8 -20 -52 -23 -40 -2 -54 -7
-56 -20 -3 -14 6 -17 50 -20 39 -2 53 -7 53 -18 0 -11 -14 -16 -52 -18 -48 -3
-53 -5 -53 -27 0 -22 4 -24 57 -27 46 -2 59 -7 61 -20 3 -16 -6 -18 -77 -18
l-81 0 0 105 0 105 75 0 c68 0 75 -2 75 -19z m197 -7 c19 -25 16 -51 -7 -74
l-20 -20 25 -38 c31 -46 31 -52 1 -52 -17 0 -30 10 -44 34 -11 19 -30 39 -41
45 -18 10 -21 8 -27 -12 -3 -14 -4 -33 -2 -43 2 -13 -4 -20 -19 -22 -23 -3
-23 -2 -23 104 l0 107 72 -5 c53 -4 75 -10 85 -24z m88 -79 c0 -96 -1 -100
-22 -103 -23 -3 -23 -1 -23 96 0 102 3 115 30 110 12 -3 15 -21 15 -103z m118
38 l42 -68 3 68 c2 58 6 68 20 65 14 -3 17 -19 20 -106 l3 -102 -25 0 c-19 0
-31 12 -56 55 -17 30 -35 57 -41 60 -5 4 -9 -19 -9 -54 0 -54 -2 -61 -20 -61
-19 0 -20 7 -20 98 0 54 3 102 7 105 17 18 37 2 76 -60z m285 40 l26 -26 -23
-11 c-18 -8 -25 -7 -32 7 -12 20 -62 23 -78 4 -24 -30 -24 -73 1 -102 22 -25
28 -27 54 -18 29 10 40 37 17 39 -7 1 -17 2 -23 3 -5 0 -10 8 -10 16 0 11 12
15 45 15 l45 0 0 -43 c0 -37 -4 -46 -25 -55 -14 -7 -44 -12 -66 -12 -79 0
-124 85 -86 160 27 54 111 67 155 23z m-4096 -488 l44 -140 157 -5 156 -5
-125 -89 c-105 -76 -123 -93 -118 -110 4 -12 26 -79 49 -151 23 -71 42 -131
41 -132 0 -1 -56 39 -123 88 -68 49 -128 89 -134 89 -6 0 -68 -41 -137 -91
-69 -50 -123 -85 -120 -78 31 80 89 281 85 292 -3 7 -58 51 -122 98 l-118 84
151 3 c103 2 153 6 160 15 5 6 29 74 53 149 24 76 46 135 50 130 4 -4 27 -70
51 -147z m4854 -147 l155 -3 -103 -74 c-57 -41 -112 -82 -124 -93 l-21 -18 48
-147 c27 -81 47 -148 46 -149 -1 -1 -56 38 -122 87 -66 48 -126 88 -133 89 -7
0 -55 -31 -105 -68 -51 -37 -106 -78 -124 -90 l-31 -22 44 138 c24 75 46 144
49 152 3 11 -33 43 -119 105 l-125 90 154 3 c134 2 154 5 160 20 3 9 25 73 47
142 22 69 43 129 46 135 3 5 28 -59 54 -143 l49 -151 155 -3z m-3668 -980
l157 -3 -122 -89 c-74 -52 -123 -95 -123 -105 0 -9 20 -77 45 -151 25 -73 44
-135 42 -136 -1 -2 -58 38 -126 87 -68 50 -130 88 -137 85 -7 -3 -65 -43 -129
-91 -63 -47 -117 -85 -119 -85 -3 0 18 68 46 151 30 90 47 154 41 158 -6 3
-63 44 -128 91 l-118 85 159 5 158 5 48 145 c26 80 47 147 48 150 0 3 23 -64
51 -147 l50 -152 157 -3z m2482 150 l47 -143 157 -5 158 -5 -125 -90 c-114
-82 -125 -92 -120 -115 4 -14 25 -82 48 -152 24 -71 41 -128 39 -128 -3 0 -57
39 -120 86 -64 47 -122 88 -129 90 -7 3 -68 -35 -136 -85 -68 -49 -125 -89
-126 -87 -2 1 19 69 46 150 l49 147 -130 94 -130 95 160 0 161 0 47 150 c26
82 50 147 52 145 3 -2 26 -69 52 -147z m-1345 -358 l49 -150 157 -2 157 -3
-124 -89 c-68 -49 -124 -95 -124 -101 0 -6 17 -62 38 -125 64 -191 71 -184
-72 -80 -68 49 -127 90 -131 90 -4 0 -62 -41 -131 -90 -68 -50 -124 -87 -124
-83 0 3 20 68 45 144 25 76 45 142 45 146 0 5 -41 38 -92 74 -50 35 -107 76
-126 92 l-35 27 160 0 160 0 47 150 c27 83 49 150 51 150 1 0 24 -67 50 -150z"/>
<path d="M2674 4517 l-81 -222 84 -3 c45 -1 121 -1 166 0 l84 3 -81 217 c-45
120 -84 219 -87 222 -2 2 -41 -95 -85 -217z"/>
<path d="M2227 3416 c-12 -31 -8 -46 13 -46 23 0 26 18 7 44 -13 18 -14 18
-20 2z"/>
<path d="M3180 3441 c-21 -40 -8 -102 25 -115 52 -20 95 57 61 109 -21 31 -70
35 -86 6z"/>
<path d="M4258 3424 c-3 -11 -9 -27 -13 -36 -6 -15 -2 -18 19 -18 30 0 30 -2
12 40 -11 26 -14 29 -18 14z"/>
<path d="M4840 3394 l0 -65 38 3 c37 3 37 3 40 51 4 57 -9 77 -49 77 l-29 0 0
-66z"/>
<path d="M5237 3454 c-4 -4 -7 -16 -7 -26 0 -16 6 -19 38 -16 29 2 37 7 37 23
0 15 -8 21 -30 23 -17 2 -34 0 -38 -4z"/>
</g>
</svg>
