<?xml version="1.0" standalone="no"?>
<!DOCTYPE svg PUBLIC "-//W3C//DTD SVG 20010904//EN"
 "http://www.w3.org/TR/2001/REC-SVG-20010904/DTD/svg10.dtd">
<svg version="1.0" xmlns="http://www.w3.org/2000/svg"
 width="612.000000pt" height="612.000000pt" viewBox="0 0 612.000000 612.000000"
 preserveAspectRatio="xMidYMid meet">

<g transform="translate(0.000000,612.000000) scale(0.100000,-0.100000)"
fill="#000000" stroke="none">
<path d="M2845 5514 c-770 -79 -1418 -466 -1839 -1099 -196 -294 -314 -598
-378 -970 -30 -179 -32 -559 -4 -740 42 -268 110 -483 231 -730 363 -739 1057
-1235 1890 -1352 135 -19 460 -21 600 -4 550 68 1071 323 1460 715 326 329
556 752 654 1203 43 198 54 312 54 533 -1 212 -14 339 -58 535 -139 622 -523
1171 -1067 1526 -114 75 -359 196 -491 244 -265 95 -493 135 -792 140 -121 2
-238 1 -260 -1z m155 -164 c0 -26 -4 -30 -26 -30 l-26 0 7 -122 c3 -68 8 -133
10 -144 4 -20 -14 -33 -47 -34 -3 0 -9 44 -12 98 -4 53 -9 121 -12 150 -5 50
-7 52 -35 52 -26 0 -30 3 -27 23 3 20 10 23 78 28 41 3 78 6 83 7 4 1 7 -11 7
-28z m368 4 c7 -2 12 -14 10 -26 -3 -20 -8 -22 -50 -19 -47 2 -48 2 -48 -27 0
-17 -2 -37 -6 -45 -4 -10 5 -16 34 -21 36 -5 39 -8 34 -32 -4 -23 -8 -25 -37
-20 -37 7 -45 -3 -45 -59 0 -31 2 -33 46 -40 39 -5 45 -9 42 -28 -3 -21 -7
-22 -73 -18 -38 2 -72 5 -74 7 -4 3 12 190 26 297 l6 48 61 -6 c33 -4 67 -8
74 -11z m-770 -54 c12 -11 26 -37 31 -58 23 -89 41 -175 41 -202 0 -60 -92
-93 -138 -50 -12 12 -22 22 -22 24 0 2 -12 54 -26 117 -14 62 -23 123 -19 136
12 47 95 68 133 33z m1101 -11 c35 -12 51 -35 51 -73 0 -40 -11 -56 -37 -56
-22 0 -24 4 -21 38 3 32 0 37 -19 40 -18 3 -24 -4 -33 -40 -6 -24 -20 -73 -31
-111 -21 -71 -19 -87 11 -87 12 0 22 12 30 35 10 30 15 35 33 29 29 -9 28 -6
17 -44 -14 -49 -38 -70 -80 -70 -46 0 -80 30 -80 71 0 31 42 190 61 233 10 20
39 43 60 45 3 1 20 -4 38 -10z m-1451 -145 c15 -27 21 -49 18 -71 -3 -24 0
-33 13 -38 9 -3 31 -34 48 -69 l30 -64 -24 -11 c-13 -6 -25 -11 -27 -11 -2 0
-13 22 -24 48 -12 27 -28 54 -35 61 -17 13 -50 4 -43 -13 2 -6 15 -35 27 -64
20 -46 21 -54 9 -62 -8 -6 -20 -10 -26 -10 -9 0 -144 292 -144 312 0 3 8 8 18
11 9 3 35 12 57 20 50 19 74 10 103 -39z m1814 4 c59 -27 67 -34 62 -52 -9
-30 -11 -31 -40 -18 -25 12 -26 12 -86 -115 -33 -71 -61 -130 -63 -131 -8 -8
-45 10 -45 22 0 6 27 68 60 136 l60 124 -24 13 c-17 9 -23 19 -19 33 7 26 14
26 95 -12z m-2180 -150 c26 -21 68 -96 68 -121 0 -13 -11 -34 -25 -47 -32 -30
-31 -35 5 -90 28 -41 29 -46 13 -57 -9 -7 -20 -13 -25 -13 -9 0 -188 265 -188
279 0 16 82 61 111 61 14 0 32 -6 41 -12z m2477 -22 c13 -15 -13 -59 -136
-233 -40 -56 -46 -61 -64 -50 -10 6 -19 15 -19 19 0 18 182 278 194 278 7 0
19 -6 25 -14z m-1104 -56 c468 -54 889 -270 1197 -615 266 -297 427 -664 467
-1064 39 -383 -53 -801 -247 -1126 -320 -534 -852 -866 -1470 -917 -760 -62
-1494 361 -1828 1055 -337 702 -202 1539 341 2105 295 308 718 516 1145 561
111 12 293 12 395 1z m1379 -161 c29 -34 32 -53 13 -85 -24 -41 -151 -173
-177 -184 -51 -21 -110 23 -110 82 0 27 64 108 151 191 41 38 89 37 123 -4z
m-3200 -260 c190 -112 177 -100 152 -134 -12 -17 -14 -17 -37 -2 -31 22 -34
22 -52 -7 -15 -22 -15 -26 3 -49 19 -24 19 -25 1 -41 -18 -16 -20 -16 -39 8
-11 14 -49 58 -85 98 -35 40 -77 87 -91 105 l-27 32 22 31 c13 16 25 30 27 30
2 0 59 -32 126 -71z m3438 4 c10 -9 18 -20 18 -25 0 -5 -22 -37 -50 -72 -27
-35 -50 -67 -50 -70 0 -4 30 16 66 44 52 39 70 47 80 39 8 -6 14 -17 14 -23
-1 -11 -244 -199 -266 -204 -7 -2 -18 6 -24 18 -10 19 -4 31 51 103 34 45 67
89 73 96 6 8 -32 -18 -84 -58 -87 -67 -95 -71 -107 -55 -7 10 -12 21 -11 25 2
4 44 37 93 75 50 37 105 80 123 96 38 32 49 34 74 11z m-3743 -232 c10 -7 11
-13 1 -31 -15 -28 -16 -28 132 -111 101 -57 107 -62 97 -82 -7 -12 -13 -24
-15 -25 -1 -2 -60 29 -129 69 l-127 73 -17 -23 c-11 -14 -23 -20 -34 -15 -24
9 -22 18 18 91 36 62 47 71 74 54z m4095 -384 c30 -78 18 -118 -41 -138 -21
-7 -52 -12 -70 -11 -18 1 -33 -3 -33 -9 0 -6 -30 -24 -67 -41 -64 -28 -67 -29
-80 -12 -20 27 -12 36 47 59 54 21 66 34 56 60 -4 12 -16 10 -69 -10 l-64 -24
-12 25 c-9 21 -8 26 12 34 45 20 282 108 293 109 6 1 19 -18 28 -42z m-4143
-28 c85 -17 156 -33 157 -34 2 -2 1 -13 -3 -24 -5 -16 -15 -21 -40 -21 -29 0
-36 -4 -41 -26 -5 -21 -1 -31 20 -48 23 -18 25 -23 14 -39 -13 -17 -19 -15
-98 31 -47 26 -113 63 -147 82 -35 18 -63 39 -63 46 0 25 20 64 33 64 7 0 83
-14 168 -31z m4258 -384 c13 -71 10 -85 -18 -85 -19 0 -31 26 -31 68 0 21 -3
23 -32 17 -64 -13 -65 -13 -60 -46 3 -20 0 -34 -9 -40 -26 -16 -39 -9 -39 20
0 38 -9 43 -60 35 l-42 -7 6 -48 c6 -47 6 -49 -18 -49 -22 0 -26 6 -36 55 -18
89 -23 85 140 116 202 38 184 41 199 -36z m-4374 40 c115 -20 144 -32 151 -62
6 -24 -1 -121 -9 -130 -6 -5 -320 49 -330 57 -13 11 5 100 25 125 23 29 40 30
163 10z m4390 -380 c27 -26 32 -63 14 -98 -16 -31 -28 -37 -71 -37 -34 0 -38
3 -38 25 0 21 5 25 29 25 30 0 50 25 33 42 -5 5 -60 7 -123 6 -110 -3 -114 -4
-117 -25 -3 -21 1 -23 42 -23 25 0 46 5 46 10 0 6 11 10 25 10 22 0 25 -4 25
-35 l0 -35 -52 -1 c-83 -2 -102 1 -121 20 -33 32 -23 110 16 129 12 6 77 11
145 11 118 1 124 0 147 -24z m-4250 -290 c4 -36 5 -68 2 -72 -5 -4 -290 -43
-324 -43 -8 0 -13 12 -13 28 l0 29 118 12 c178 19 168 15 164 67 -4 41 -2 44
21 44 24 0 26 -4 32 -65z m4115 -65 c63 -11 118 -20 123 -20 4 0 7 -13 7 -30
0 -16 -1 -30 -2 -30 -2 0 -66 11 -142 25 -141 25 -161 24 -154 -11 2 -14 19
-21 78 -31 229 -38 211 -33 204 -56 -4 -12 -8 -24 -10 -26 -5 -6 -268 41 -289
51 -28 15 -35 28 -35 71 0 47 28 77 73 77 17 0 84 -9 147 -20z m-4064 -212 c4
-12 2 -24 -3 -25 -32 -11 -46 -31 -39 -56 5 -23 12 -27 41 -27 19 0 35 -4 35
-9 0 -5 2 -16 5 -23 4 -11 -25 -18 -136 -32 -77 -9 -155 -20 -173 -23 -30 -5
-33 -3 -44 33 -6 21 -10 39 -9 41 9 8 294 142 304 143 6 0 15 -10 19 -22z
m3949 -152 c109 -38 151 -58 153 -70 8 -38 -15 -37 -148 9 -73 25 -136 43
-139 39 -3 -3 -11 -20 -17 -37 -8 -23 -16 -31 -30 -29 -28 5 -28 8 -15 54 20
65 30 88 38 87 5 0 76 -24 158 -53z m-3825 -196 c0 -11 -15 -25 -37 -35 -39
-18 -73 -43 -73 -54 0 -3 4 -12 9 -19 6 -11 21 -7 70 17 l61 31 12 -25 c6 -14
9 -27 7 -29 -10 -9 -301 -148 -303 -145 -2 2 -13 23 -25 46 -35 70 -28 104 30
133 21 11 50 20 64 20 15 0 34 9 43 21 10 11 40 33 67 48 52 29 75 26 75 -9z
m3728 -169 c50 -40 92 -75 92 -77 0 -12 -31 -64 -39 -64 -10 0 -312 108 -318
114 -7 7 17 46 28 46 6 0 19 -5 29 -10 16 -8 22 -6 36 15 16 25 16 27 -5 49
-24 25 -26 37 -9 54 9 9 21 4 52 -21 23 -19 83 -66 134 -106z m-3535 -151 c20
-27 38 -54 39 -59 2 -6 -58 -55 -132 -110 l-135 -101 -32 38 c-18 20 -38 48
-45 61 -11 20 -10 25 7 37 21 16 19 17 60 -39 14 -20 25 -17 68 17 18 14 18
16 1 45 -15 25 -15 32 -5 45 18 22 23 20 45 -13 l20 -29 38 25 c21 14 38 29
38 32 0 4 -11 23 -25 41 -24 32 -24 36 -8 47 24 18 25 18 66 -37z m3318 -194
c46 -37 50 -38 68 -22 18 16 51 13 51 -6 0 -11 -90 -128 -99 -128 -3 0 -12 4
-20 9 -12 8 -13 14 -3 36 7 14 12 27 12 29 0 1 -50 42 -110 90 -67 53 -108 92
-104 99 21 37 26 36 91 -16 36 -29 87 -70 114 -91z m-3161 -153 l-52 -98 75
74 c51 50 80 72 91 68 9 -4 16 -12 16 -19 0 -7 -51 -67 -114 -133 l-114 -120
-26 24 -25 24 46 86 46 86 -66 -70 c-62 -67 -66 -69 -83 -53 -21 21 -23 17
131 175 88 91 90 93 109 74 18 -19 18 -21 -34 -118z m2883 -17 c140 -151 141
-153 124 -171 -9 -8 -18 -15 -22 -15 -6 0 -120 119 -200 208 -36 41 -37 43
-19 57 10 8 21 15 24 15 3 0 44 -43 93 -94z m-2541 -113 c32 -21 58 -41 58
-46 0 -15 -182 -282 -191 -279 -5 1 -34 18 -64 38 -47 31 -53 39 -44 55 13 24
24 24 61 -3 l31 -22 23 30 c31 37 30 48 -3 73 -26 19 -27 21 -11 37 16 16 18
16 43 0 30 -20 40 -15 68 32 l17 30 -35 22 c-36 22 -39 28 -29 54 8 22 9 21
76 -21z m2286 10 c38 -34 142 -200 142 -227 0 -62 -95 -101 -138 -58 -44 44
-135 195 -135 225 0 61 85 100 131 60z m-250 -293 c38 -85 66 -158 63 -162 -4
-4 -20 -10 -36 -13 -27 -5 -35 1 -82 61 -29 36 -53 63 -53 59 0 -4 14 -39 31
-78 30 -67 30 -71 13 -84 -10 -7 -21 -10 -25 -6 -9 10 -140 306 -137 308 2 1
13 8 26 14 19 10 26 10 35 -3 69 -88 132 -165 134 -162 2 2 -15 42 -37 91 -22
48 -40 93 -40 100 0 12 31 38 37 32 1 -1 33 -72 71 -157z m-1707 104 c11 -10
19 -31 19 -50 0 -37 -85 -233 -109 -251 -36 -28 -116 -2 -127 42 -3 13 -1 40
6 60 10 30 15 35 33 29 30 -9 31 -9 19 -43 -8 -23 -7 -32 4 -42 22 -18 36 0
84 110 36 83 39 96 26 109 -8 8 -19 11 -25 7 -19 -11 -39 -69 -29 -81 11 -15
-1 -44 -19 -44 -12 0 -49 15 -61 25 -7 6 59 135 75 144 24 15 80 6 104 -15z"/>
<path d="M2523 5255 c-5 -15 11 -101 39 -201 9 -35 28 -43 46 -21 16 19 -39
231 -61 235 -9 2 -20 -4 -24 -13z"/>
<path d="M2152 5132 c-18 -12 23 -103 43 -96 22 9 25 31 9 69 -14 35 -28 42
-52 27z"/>
<path d="M1812 4947 c-8 -9 -4 -24 16 -55 15 -23 32 -42 39 -42 32 0 28 51 -7
88 -24 25 -33 27 -48 9z"/>
<path d="M2880 4879 c-584 -60 -1099 -390 -1396 -896 -297 -504 -332 -1123
-94 -1663 215 -488 647 -865 1165 -1015 439 -127 923 -80 1332 129 283 145
512 348 688 611 545 814 355 1898 -435 2487 -352 263 -821 392 -1260 347z
m216 -164 l26 -84 92 -3 91 -3 -65 -49 c-36 -27 -68 -52 -73 -56 -4 -3 4 -39
18 -80 14 -40 25 -79 25 -87 0 -7 -31 10 -70 38 -42 31 -76 49 -85 45 -8 -3
-40 -24 -70 -47 -31 -23 -58 -39 -61 -36 -3 3 6 41 19 85 l25 79 -55 39 c-111
79 -111 73 -2 74 l95 0 18 58 c20 67 37 112 42 112 2 0 15 -38 30 -85z m740
-200 l28 -84 95 -3 95 -3 -72 -52 c-40 -29 -72 -59 -72 -66 0 -7 11 -47 25
-87 14 -40 23 -75 21 -77 -1 -2 -34 19 -72 47 -38 27 -72 50 -77 50 -4 0 -38
-22 -75 -49 -37 -27 -68 -48 -70 -46 -2 2 8 41 22 87 l26 83 -23 17 c-12 10
-43 33 -69 50 -26 18 -48 36 -48 41 0 4 40 7 89 7 l90 0 26 85 c15 47 28 85
30 85 2 0 16 -38 31 -85z m-1490 -41 l15 -53 90 -3 91 -3 -69 -49 c-37 -27
-69 -50 -71 -51 -1 -1 9 -39 23 -85 15 -45 25 -84 23 -86 -3 -2 -37 19 -76 47
l-72 50 -66 -50 c-37 -28 -70 -51 -74 -51 -5 0 3 34 16 75 13 42 24 82 24 89
0 7 -31 35 -69 62 l-70 49 92 5 91 5 17 55 c9 30 22 69 29 85 l12 30 14 -34
c8 -19 21 -58 30 -87z m-545 -502 l26 -77 94 -5 94 -5 -65 -49 c-36 -27 -69
-52 -73 -56 -5 -4 3 -45 17 -90 15 -46 25 -84 23 -86 -2 -2 -30 16 -63 39 -32
24 -65 47 -72 51 -8 5 -39 -11 -84 -44 -38 -28 -72 -50 -74 -48 -2 2 8 39 21
81 14 43 25 81 25 86 0 4 -32 31 -71 59 -81 58 -80 60 46 64 l69 3 26 82 c14
44 27 79 30 76 3 -2 17 -39 31 -81z m2589 -20 l27 -77 94 -5 93 -5 -72 -53
c-40 -30 -72 -59 -72 -66 0 -7 11 -46 25 -86 14 -40 24 -75 22 -76 -1 -2 -36
20 -76 48 l-73 51 -74 -52 c-41 -29 -74 -48 -74 -43 0 5 11 42 25 82 14 40 25
77 25 80 0 4 -31 29 -70 56 -38 27 -69 52 -70 57 0 4 40 7 89 7 l90 0 27 85
c16 46 30 82 33 80 2 -3 17 -40 31 -83z m-2080 -213 c105 -23 159 -103 168
-251 l5 -88 -97 0 -96 0 0 61 c0 75 -12 99 -49 99 -47 0 -51 -24 -51 -313 0
-282 5 -309 50 -315 40 -6 50 21 50 130 0 98 0 98 -25 98 -25 0 -25 1 -25 85
l0 85 120 0 120 0 0 -285 0 -285 -41 0 c-37 0 -41 3 -55 37 l-16 36 -21 -25
c-39 -45 -83 -60 -157 -56 -82 4 -126 33 -161 105 -23 47 -24 55 -27 371 -3
275 -1 330 13 370 25 75 71 119 143 138 60 16 89 17 152 3z m603 -15 c57 -19
101 -69 116 -130 15 -57 15 -606 0 -673 -14 -65 -45 -110 -94 -138 -37 -21
-52 -23 -207 -23 l-168 0 0 490 0 490 153 0 c114 0 165 -4 200 -16z m542 2
c26 -8 58 -25 71 -37 77 -72 96 -327 34 -455 -29 -58 -75 -82 -175 -91 l-75
-6 0 -188 0 -189 -95 0 -95 0 0 490 0 490 143 0 c96 0 160 -5 192 -14z m602
-12 c46 -33 72 -98 79 -200 8 -110 -11 -191 -53 -224 -25 -20 -26 -23 -10 -31
46 -26 53 -71 49 -336 l-2 -163 -95 0 -95 0 0 201 c0 119 -4 208 -10 220 -6
11 -21 19 -35 19 l-25 0 0 -220 0 -220 -100 0 -100 0 0 491 0 491 184 -4 c167
-3 187 -5 213 -24z m-2472 -501 l27 -83 77 -1 c42 -1 82 -1 89 0 27 4 9 -17
-57 -66 l-70 -52 29 -86 c16 -47 26 -85 23 -85 -4 0 -38 23 -76 51 l-69 50
-54 -38 c-30 -21 -63 -44 -74 -52 -25 -17 -25 -12 4 82 l24 79 -69 50 c-38 28
-68 52 -66 54 1 2 37 4 79 5 42 1 81 4 86 8 6 3 22 43 37 89 15 46 28 82 30
80 1 -2 15 -40 30 -85z m3126 -93 c49 0 89 -4 89 -8 0 -5 -24 -25 -54 -46 -88
-61 -87 -58 -56 -153 31 -93 31 -93 -60 -28 -25 17 -50 35 -56 38 -6 4 -43
-16 -82 -43 -39 -28 -73 -50 -76 -50 -2 0 7 34 20 75 13 42 24 82 24 90 0 7
-30 34 -66 60 -36 26 -64 49 -61 51 6 6 67 13 122 13 l51 1 28 88 29 87 29
-87 30 -88 89 0z m-1529 -555 c64 -46 88 -101 88 -202 0 -76 2 -83 20 -83 19
0 20 -7 20 -195 l0 -195 -250 0 -250 0 0 195 c0 188 1 195 20 195 18 0 20 7
20 78 0 66 4 87 28 133 22 45 36 59 82 82 47 25 64 28 117 25 49 -3 72 -10
105 -33z m-1394 -116 l27 -84 90 -5 90 -5 -67 -50 c-38 -27 -68 -57 -68 -66 0
-8 11 -48 24 -87 14 -40 22 -72 19 -72 -3 0 -37 22 -75 50 l-71 49 -31 -21
c-17 -12 -48 -35 -69 -51 -21 -16 -40 -27 -43 -25 -3 4 18 86 41 156 3 7 -28
36 -68 65 l-72 52 90 5 90 5 30 87 c16 48 31 85 33 84 2 -2 15 -41 30 -87z
m2603 -8 l24 -80 95 -3 95 -3 -72 -50 c-40 -27 -73 -57 -73 -66 0 -8 11 -49
25 -89 14 -40 24 -75 22 -76 -2 -2 -34 19 -73 46 -38 28 -75 48 -82 45 -7 -3
-42 -26 -78 -51 -35 -25 -64 -42 -64 -36 0 5 8 33 18 63 38 109 40 101 -41
160 l-72 54 92 3 92 3 27 84 c15 46 31 82 34 80 4 -2 18 -40 31 -84z m-2061
-548 l28 -78 92 -3 92 -3 -69 -51 c-37 -28 -70 -53 -72 -55 -2 -1 8 -42 22
-90 15 -47 26 -87 25 -89 -2 -1 -36 22 -76 52 l-74 54 -74 -55 c-41 -30 -74
-52 -74 -49 0 3 12 45 26 92 15 50 22 88 17 89 -6 2 -39 25 -74 51 l-63 47 92
3 92 3 26 85 c14 47 28 83 31 80 3 -3 18 -40 33 -83z m1622 -83 c105 0 105 -3
6 -72 -32 -22 -58 -44 -58 -47 0 -3 11 -39 25 -79 14 -41 25 -78 25 -82 0 -5
-33 14 -74 42 l-74 51 -73 -52 c-40 -28 -74 -50 -75 -48 -2 1 8 36 22 77 13
41 24 80 24 86 0 7 -33 36 -72 66 l-73 53 95 3 95 3 17 58 c38 128 37 127 70
29 l30 -88 90 0z m-861 -117 l25 -78 95 -5 94 -5 -72 -54 c-40 -30 -73 -59
-73 -65 0 -6 12 -45 25 -86 14 -41 25 -76 25 -77 0 -3 -33 19 -108 70 l-41 29
-48 -33 c-26 -17 -58 -41 -70 -52 -13 -11 -25 -18 -28 -15 -3 3 6 39 20 82 14
42 25 80 25 85 0 4 -31 30 -70 57 -38 27 -70 52 -70 55 0 3 39 6 88 8 48 1 90
5 94 9 3 4 16 40 27 80 12 39 25 72 29 72 5 0 19 -35 33 -77z"/>
<path d="M2760 3245 c0 -312 0 -315 21 -315 11 0 29 5 40 10 18 10 19 24 19
300 0 158 -3 295 -6 304 -4 10 -18 16 -40 16 l-34 0 0 -315z"/>
<path d="M3312 3443 c3 -102 5 -118 20 -121 10 -2 29 8 43 22 22 22 25 34 25
91 0 90 -19 125 -68 125 -22 0 -23 -1 -20 -117z"/>
<path d="M3860 3466 l0 -86 29 0 c43 0 52 19 49 97 l-3 68 -37 3 -38 3 0 -85z"/>
<path d="M2990 2521 c-59 -31 -75 -62 -79 -157 l-3 -84 151 0 151 0 0 79 c0
65 -4 84 -23 112 -43 65 -129 87 -197 50z"/>
<path d="M3101 2125 c-41 -63 -76 -115 -79 -115 -2 0 -22 16 -43 35 -44 39
-57 43 -66 18 -5 -12 10 -32 51 -70 31 -29 61 -53 66 -53 15 0 189 272 183
287 -13 33 -42 7 -112 -102z"/>
<path d="M4486 4656 c-74 -84 -87 -116 -47 -116 23 0 163 156 159 177 -7 39
-37 22 -112 -61z"/>
<path d="M1396 4425 c37 -44 49 -53 60 -44 8 6 14 15 14 20 0 8 -104 79 -116
79 -3 0 16 -25 42 -55z"/>
<path d="M5122 3842 c-38 -16 -41 -19 -29 -36 25 -34 106 0 91 38 -7 19 -8 19
-62 -2z"/>
<path d="M990 3809 c8 -5 36 -21 62 -34 40 -21 47 -22 52 -9 11 28 7 31 -51
43 -69 14 -82 14 -63 0z"/>
<path d="M837 3463 c-4 -3 -7 -14 -7 -23 0 -13 20 -20 98 -33 126 -22 142 -22
142 2 0 27 -12 33 -95 47 -79 15 -129 17 -138 7z"/>
<path d="M985 2460 l-60 -30 55 6 c76 8 92 13 88 32 -5 24 -19 23 -83 -8z"/>
<path d="M1070 2099 c-36 -15 -46 -33 -31 -57 7 -11 17 -10 52 8 56 28 54 27
39 45 -14 17 -25 18 -60 4z"/>
<path d="M4881 2052 c-8 -16 -1 -21 60 -44 38 -14 69 -25 69 -23 0 5 -107 85
-113 85 -3 0 -11 -8 -16 -18z"/>
<path d="M4191 1391 c-19 -12 -11 -29 56 -128 57 -83 71 -94 91 -70 9 10 -4
37 -54 110 -35 53 -68 97 -72 97 -4 0 -13 -4 -21 -9z"/>
</g>
</svg>
