<?xml version="1.0" standalone="no"?>
<!DOCTYPE svg PUBLIC "-//W3C//DTD SVG 20010904//EN"
 "http://www.w3.org/TR/2001/REC-SVG-20010904/DTD/svg10.dtd">
<svg version="1.0" xmlns="http://www.w3.org/2000/svg"
 width="501.000000pt" height="500.000000pt" viewBox="0 0 501.000000 500.000000"
 preserveAspectRatio="xMidYMid meet">

<g transform="translate(0.000000,500.000000) scale(0.100000,-0.100000)"
fill="#000000" stroke="none">
<path d="M2270 4983 c-463 -47 -896 -216 -1267 -495 -125 -93 -333 -295 -436
-423 -461 -572 -647 -1304 -513 -2025 123 -661 510 -1244 1081 -1625 222 -148
554 -289 821 -350 353 -79 745 -79 1103 1 725 162 1349 655 1684 1329 119 240
186 452 234 740 26 157 26 573 0 730 -64 384 -189 707 -392 1010 -105 158
-185 255 -315 385 -405 406 -931 658 -1502 720 -90 9 -416 12 -498 3z m580
-59 c431 -62 855 -247 1195 -521 126 -101 318 -299 412 -423 412 -546 580
-1231 464 -1899 -167 -956 -889 -1730 -1833 -1961 -222 -54 -319 -65 -593 -64
-223 1 -266 4 -395 27 -525 94 -982 334 -1345 708 -381 392 -610 864 -680
1402 -20 153 -20 446 0 607 68 549 334 1080 732 1460 422 404 938 635 1528
684 99 8 403 -4 515 -20z"/>
<path d="M2315 4830 c-830 -70 -1553 -565 -1914 -1311 -161 -332 -234 -649
-234 -1019 0 -269 34 -490 113 -729 280 -847 997 -1449 1890 -1588 159 -24
509 -24 669 0 312 49 606 153 861 307 450 270 794 676 983 1160 107 271 157
545 157 852 0 787 -389 1509 -1050 1950 -209 139 -496 262 -745 321 -226 53
-511 76 -730 57z m94 -336 c34 -86 60 -158 58 -160 -2 -2 -18 -5 -37 -6 -30
-3 -35 0 -43 30 -8 25 -15 32 -36 32 -52 0 -70 -11 -77 -45 -5 -28 -11 -34
-37 -38 -18 -2 -35 -3 -38 -1 -3 2 9 79 27 171 19 92 34 169 34 170 0 3 75 8
82 6 3 -2 34 -73 67 -159z m435 132 c46 -19 61 -43 60 -94 -1 -38 -6 -50 -34
-75 -31 -27 -37 -29 -91 -24 l-58 5 -7 -65 -7 -65 -36 7 c-20 4 -36 8 -37 8
-2 4 37 303 42 316 3 11 19 12 71 7 36 -4 80 -13 97 -20z m-684 -33 c0 -13 -6
-23 -14 -23 -8 0 -26 -4 -39 -9 l-24 -9 29 -128 c16 -70 26 -130 21 -135 -4
-4 -21 -9 -37 -11 l-29 -3 -28 129 c-16 71 -30 130 -32 132 -1 2 -20 -1 -40
-6 -40 -9 -43 -6 -49 35 -3 17 11 22 112 45 120 27 130 26 130 -17z m941 -14
c109 -33 144 -92 99 -166 -11 -18 -30 -35 -43 -38 l-24 -6 14 -76 c8 -41 13
-77 11 -79 -2 -2 -20 1 -40 6 -38 11 -36 7 -53 118 -6 34 -11 42 -28 42 -18 0
-25 -11 -39 -59 l-18 -60 -31 9 c-18 5 -33 11 -35 13 -2 2 17 74 43 160 32
109 50 157 60 157 8 0 46 -9 84 -21z m-1194 -168 c51 -71 94 -135 95 -141 2
-7 -10 -17 -26 -23 -26 -9 -32 -7 -51 17 -21 27 -24 27 -64 15 -39 -12 -41
-14 -41 -51 0 -32 -4 -40 -26 -48 -14 -6 -29 -10 -33 -10 -10 0 -18 69 -27
231 l-7 116 29 11 c16 6 36 11 44 11 8 0 56 -58 107 -128z m1550 32 c76 -36
95 -129 45 -224 -38 -73 -82 -102 -145 -96 -58 5 -96 30 -120 80 -23 46 -17
92 21 162 47 87 120 116 199 78z m-1873 -47 c42 -18 84 -71 102 -132 26 -88
-7 -144 -119 -200 -40 -21 -51 -23 -58 -12 -26 38 -149 269 -149 277 0 14 138
81 167 81 13 0 39 -6 57 -14z m2245 -182 c2 -2 -4 -15 -13 -29 l-17 -26 -35
22 c-20 12 -39 18 -43 13 -5 -5 -39 -54 -76 -109 -38 -55 -70 -102 -71 -104
-2 -2 -17 7 -34 19 l-30 22 75 108 c71 103 85 130 68 130 -5 0 -19 9 -32 19
-23 17 -23 19 -6 44 l17 27 97 -66 c53 -37 98 -68 100 -70z m-1109 -38 c276
-37 540 -141 770 -304 121 -85 305 -270 392 -392 81 -113 186 -320 227 -445
200 -616 45 -1272 -409 -1725 -69 -69 -168 -156 -220 -193 -112 -79 -320 -184
-440 -222 l-85 -28 -217 -215 c-202 -199 -219 -214 -245 -208 -18 5 -101 80
-238 216 l-210 209 -80 26 c-44 14 -138 54 -210 89 -725 355 -1098 1183 -884
1963 138 504 517 927 1004 1122 262 105 568 144 845 107z m1265 -101 l80 -74
-22 -22 -21 -22 -40 31 c-21 17 -45 38 -52 47 -17 21 -33 19 -48 -6 -12 -19
-10 -25 24 -60 l38 -39 -22 -22 -22 -22 -40 39 -40 39 -27 -27 -27 -27 57 -58
57 -58 -22 -21 -23 -21 -84 78 -85 79 90 96 c49 53 98 107 109 120 11 13 25
24 30 24 6 0 46 -33 90 -74z m-2803 -130 l47 -50 43 43 c49 47 58 50 82 23 17
-18 16 -21 -26 -59 -95 -86 -120 -105 -126 -95 -4 5 -54 63 -112 128 l-104
118 29 22 28 23 46 -51 c25 -29 67 -74 93 -102z m-183 -76 c64 -29 133 -60
154 -71 l38 -19 -21 -29 c-21 -29 -21 -29 -54 -13 -34 16 -34 16 -64 -18 l-30
-34 20 -33 21 -34 -26 -25 -25 -26 -89 134 c-49 74 -92 139 -96 146 -6 10 37
73 50 73 3 0 57 -23 122 -51z m3183 -6 c45 -40 59 -98 36 -148 -13 -30 -16
-30 -46 -5 -17 14 -21 25 -16 43 16 65 -44 87 -112 41 -51 -34 -74 -63 -74
-94 0 -35 17 -50 56 -50 26 0 34 -6 44 -30 16 -38 11 -43 -39 -43 -48 0 -85
22 -111 66 -45 74 -11 156 93 222 57 37 127 36 169 -2z m-3321 -235 l138 -81
-15 -29 -15 -28 -127 0 -127 0 93 -56 92 -55 -17 -29 c-9 -16 -19 -28 -22 -26
-40 20 -281 169 -281 173 0 3 8 18 17 35 l18 29 112 -3 c61 -2 109 0 107 3 -2
4 -37 26 -79 50 -41 23 -75 46 -75 51 0 14 24 48 34 48 4 0 71 -37 147 -82z
m3513 -40 l58 -101 -23 -18 c-23 -18 -24 -18 -39 0 -8 10 -20 27 -25 36 -10
16 -21 12 -123 -48 -62 -37 -116 -67 -120 -67 -4 0 -15 13 -24 30 l-16 29 114
66 c63 37 114 72 114 79 0 7 -7 21 -15 32 -20 27 -19 39 8 52 12 6 24 11 27
11 3 0 31 -45 64 -101z m106 -208 c7 -17 11 -32 9 -34 -5 -5 -298 -136 -303
-136 -8 0 -28 61 -22 67 9 10 279 132 292 132 6 1 17 -13 24 -29z m-3795 -75
c87 -9 160 -16 161 -18 1 -1 -4 -17 -12 -36 -13 -31 -17 -33 -49 -28 -33 5
-35 4 -51 -38 l-16 -44 28 -24 c28 -24 28 -26 14 -57 l-16 -32 -137 107 c-75
58 -137 107 -137 109 0 18 33 76 44 76 7 0 84 -7 171 -15z m3826 -90 c61 -32
89 -128 55 -193 -35 -67 -187 -111 -255 -75 -62 33 -90 127 -57 192 37 71 183
114 257 76z m-3884 -171 c63 -23 93 -64 93 -127 0 -117 -85 -170 -214 -133
-82 24 -117 59 -123 123 -13 132 92 191 244 137z m4013 -183 c0 -37 -4 -41
-90 -106 -49 -38 -89 -70 -87 -71 1 -1 45 4 97 11 52 8 95 13 96 12 1 -1 4
-16 7 -34 6 -28 3 -32 -21 -37 -51 -10 -303 -39 -306 -35 -2 2 -7 18 -10 34
-6 29 -2 34 91 104 l98 73 -75 -8 c-133 -13 -135 -13 -138 22 l-3 31 138 18
c76 9 143 18 148 20 6 2 20 4 33 4 19 1 22 -4 22 -38z m-4207 -168 c4 -20 -1
-33 -19 -50 -27 -25 -30 -41 -11 -68 19 -25 32 -14 66 53 45 89 83 113 146 92
85 -28 87 -175 4 -224 -34 -20 -34 -20 -47 14 -8 21 -4 29 19 51 32 30 36 55
15 84 -20 28 -40 13 -76 -54 -41 -77 -62 -95 -106 -94 -96 3 -124 139 -42 208
34 29 43 27 51 -12z m239 -283 c4 -40 3 -41 -60 -78 -48 -28 -62 -41 -60 -57
2 -11 8 -19 13 -18 6 1 35 3 65 4 l55 3 3 -37 c2 -20 0 -37 -5 -37 -4 0 -77
-7 -161 -16 -85 -9 -156 -13 -160 -9 -3 3 -9 40 -13 82 -10 98 5 137 57 159
42 18 76 12 105 -17 l20 -20 62 39 c34 22 65 41 68 41 4 1 9 -17 11 -39z
m3985 -154 c-3 -21 -11 -42 -17 -46 -7 -4 -73 -17 -148 -29 -76 -13 -147 -25
-160 -28 -22 -5 -23 -3 -20 33 3 36 6 39 38 44 34 5 35 7 38 51 3 43 1 47 -28
59 -25 10 -30 18 -30 45 0 17 2 34 5 37 3 3 78 -25 166 -61 l161 -66 -5 -39z
m-3927 -212 c16 -59 28 -109 27 -111 -2 -1 -74 -21 -161 -43 -114 -30 -161
-38 -166 -30 -11 17 -55 199 -50 204 3 2 17 7 31 11 26 6 27 4 44 -65 l18 -72
30 6 c17 3 32 7 33 9 2 2 -3 25 -11 52 -12 39 -13 50 -3 57 20 12 58 9 58 -4
0 -7 5 -30 11 -51 10 -36 12 -38 42 -31 18 3 35 8 39 10 4 3 -2 36 -13 76 -11
39 -16 74 -12 79 8 7 45 17 51 13 2 -1 16 -50 32 -110z m3775 47 c23 -10 53
-33 69 -52 25 -29 28 -39 24 -88 -4 -45 -10 -59 -37 -83 -33 -29 -91 -39 -91
-15 0 26 13 57 23 57 17 0 47 32 47 50 0 38 -78 80 -151 80 -30 0 -42 -5 -56
-26 -16 -24 -16 -28 2 -60 17 -32 17 -34 0 -60 l-18 -28 -28 32 c-24 26 -29
42 -29 81 0 121 110 171 245 112z m-3853 -300 c13 -11 33 -38 43 -60 10 -23
23 -41 29 -41 6 0 31 9 55 20 24 11 47 20 51 20 9 0 35 -59 29 -64 -7 -8 -288
-126 -298 -126 -12 0 -71 142 -71 172 2 78 101 127 162 79z m3659 -32 c150
-65 137 -63 153 -24 16 37 32 43 59 23 14 -12 12 -23 -30 -121 -41 -96 -48
-107 -67 -101 -35 10 -38 20 -22 58 l15 37 -32 14 c-134 56 -203 87 -210 94
-10 10 13 61 28 61 6 0 54 -18 106 -41z"/>
<path d="M2306 4520 c-4 -19 -10 -43 -12 -52 -4 -14 1 -18 26 -18 34 0 34 4 5
75 l-12 30 -7 -35z"/>
<path d="M2740 4563 c0 -10 -3 -28 -6 -41 -6 -22 -5 -23 42 -20 45 3 49 5 52
30 3 22 -2 30 -23 38 -40 15 -65 12 -65 -7z"/>
<path d="M3050 4494 c-14 -37 -8 -50 29 -57 41 -9 61 0 61 28 0 27 -15 41 -52
50 -24 6 -29 3 -38 -21z"/>
<path d="M1804 4411 c3 -18 6 -44 6 -57 0 -27 8 -30 33 -11 16 11 14 16 -14
57 l-31 45 6 -34z"/>
<path d="M3368 4384 c-32 -17 -68 -88 -68 -137 0 -31 5 -39 31 -53 30 -15 33
-15 58 3 31 23 71 97 71 134 0 46 -50 75 -92 53z"/>
<path d="M1475 4328 c-11 -6 -21 -12 -23 -13 -3 -3 85 -166 96 -177 4 -4 22 1
40 12 26 16 32 26 32 56 0 90 -81 158 -145 122z"/>
<path d="M1460 2680 l0 -311 63 3 62 3 3 123 3 122 78 0 c122 0 189 31 222
104 34 74 21 155 -34 214 -42 44 -79 52 -249 52 l-148 0 0 -310z m280 190 c50
-27 49 -100 0 -125 -16 -8 -56 -15 -90 -15 l-60 0 0 75 0 75 66 0 c36 0 74 -5
84 -10z"/>
<path d="M2020 2679 l0 -311 148 4 c161 5 194 14 254 67 49 43 80 119 86 211
9 154 -38 261 -137 312 -51 27 -59 28 -202 28 l-149 0 0 -311z m291 178 c49
-33 72 -101 67 -193 -8 -123 -51 -172 -158 -176 l-65 -3 -3 198 -2 197 63 0
c50 0 71 -5 98 -23z"/>
<path d="M2612 2683 l3 -308 65 0 65 0 2 120 1 120 94 5 c110 7 159 27 193 79
63 98 30 227 -69 272 -34 16 -67 19 -199 19 l-157 0 2 -307z m296 181 c16 -11
22 -25 22 -54 0 -63 -33 -84 -129 -78 l-53 3 -2 73 -1 72 70 0 c48 0 78 -5 93
-16z"/>
<path d="M3265 2978 c-3 -7 -41 -139 -85 -293 -44 -154 -83 -288 -86 -297 -5
-16 2 -18 61 -18 44 0 67 4 70 13 2 6 11 38 20 70 l17 58 86 -3 c95 -3 86 4
112 -95 l11 -43 64 0 c36 0 65 4 65 8 0 4 -33 124 -74 267 -41 143 -79 279
-85 303 l-12 42 -80 0 c-54 0 -81 -4 -84 -12z m116 -258 l26 -100 -59 0 c-44
0 -59 3 -56 13 3 6 15 51 28 100 13 48 26 87 29 87 3 0 18 -45 32 -100z"/>
<path d="M1489 2134 c-21 -22 -24 -35 -24 -99 0 -64 3 -77 24 -99 34 -36 107
-37 139 -3 12 13 22 29 22 35 0 17 -45 15 -60 -3 -33 -39 -80 2 -80 70 0 68
47 109 80 70 14 -16 46 -20 54 -6 3 5 -4 20 -15 35 -17 21 -29 26 -68 26 -38
0 -52 -5 -72 -26z"/>
<path d="M1717 2149 c-43 -25 -59 -120 -33 -184 18 -41 42 -55 99 -55 38 0 49
5 71 31 22 26 26 40 26 94 0 54 -4 68 -26 94 -22 27 -32 31 -72 31 -26 0 -55
-5 -65 -11z m95 -46 c23 -21 25 -99 2 -131 -21 -31 -64 -26 -82 8 -15 29 -10
103 8 125 16 20 49 19 72 -2z"/>
<path d="M1930 2035 c0 -118 1 -125 20 -125 18 0 20 7 20 83 1 91 8 88 35 -16
16 -59 21 -68 39 -65 17 2 25 18 41 76 11 39 22 72 25 72 3 0 5 -33 5 -72 0
-68 2 -73 23 -76 22 -3 22 -2 22 122 l0 126 -34 0 c-33 0 -35 -2 -51 -57 -9
-32 -19 -66 -22 -77 -8 -27 -18 -9 -38 67 -18 66 -19 67 -51 67 l-34 0 0 -125z"/>
<path d="M2210 2035 l0 -125 25 0 c23 0 25 3 25 50 l0 50 36 0 c36 0 73 15 86
34 15 22 8 76 -12 96 -16 16 -33 20 -90 20 l-70 0 0 -125z m114 79 c9 -3 16
-17 16 -29 0 -18 -7 -25 -30 -30 -39 -8 -50 0 -50 36 0 24 4 29 24 29 13 0 31
-3 40 -6z"/>
<path d="M2430 2035 l0 -125 80 0 c73 0 80 2 80 19 0 17 -8 20 -52 23 l-53 3
-3 103 c-3 101 -3 102 -27 102 l-25 0 0 -125z"/>
<path d="M2630 2035 l0 -125 25 0 25 0 0 125 0 125 -25 0 -25 0 0 -125z"/>
<path d="M2758 2035 l-35 -125 28 0 c21 0 28 5 31 23 2 18 10 23 45 25 37 3
42 0 45 -20 2 -17 11 -24 31 -26 26 -3 28 -1 22 18 -9 29 -65 224 -65 227 0 2
-15 3 -33 3 l-33 0 -36 -125z m87 8 c6 -30 4 -33 -18 -33 -24 0 -25 1 -15 41
12 44 22 42 33 -8z"/>
<path d="M2970 2035 c0 -125 0 -126 23 -123 21 3 22 8 22 81 0 42 2 77 5 77 3
0 24 -36 48 -80 36 -67 47 -80 67 -80 l25 0 0 125 0 125 -26 0 c-26 0 -26 0
-22 -75 2 -41 1 -75 -2 -75 -3 0 -23 33 -45 73 -33 59 -45 73 -68 75 l-27 3 0
-126z"/>
<path d="M3238 2143 c-46 -53 -52 -139 -15 -194 20 -30 29 -34 71 -37 39 -3
53 1 72 19 13 12 24 28 24 36 0 18 -45 17 -60 -2 -33 -39 -80 2 -80 70 0 68
47 109 80 70 13 -16 60 -21 60 -6 0 4 -9 20 -21 35 -17 22 -29 26 -68 26 -33
0 -53 -5 -63 -17z"/>
<path d="M3440 2035 l0 -125 85 0 c78 0 85 2 85 20 0 18 -7 20 -60 20 l-60 0
0 35 c0 34 1 35 40 35 33 0 40 3 40 20 0 17 -7 20 -40 20 -38 0 -40 2 -40 30
0 30 0 30 58 30 51 0 58 2 58 20 0 18 -7 20 -83 20 l-83 0 0 -125z"/>
<path d="M2775 1410 l-280 -280 -135 135 c-84 83 -143 135 -155 135 -31 0
-245 -219 -245 -250 0 -20 58 -83 258 -283 162 -161 265 -257 277 -257 29 0
835 808 835 837 0 14 -37 60 -109 132 -88 91 -113 111 -137 111 -25 0 -71 -42
-309 -280z"/>
<path d="M951 3784 l31 -46 21 21 c12 11 19 22 16 23 -2 2 -26 14 -52 26 l-48
22 32 -46z"/>
<path d="M610 3219 c42 -34 56 -36 65 -8 9 26 10 25 -50 32 l-49 5 34 -29z"/>
<path d="M4391 3145 c-49 -15 -91 -50 -91 -76 0 -9 8 -27 18 -40 42 -51 202
-1 202 63 0 24 -44 68 -67 67 -10 0 -38 -6 -62 -14z"/>
<path d="M460 2970 c-56 -56 11 -120 126 -120 50 0 77 25 72 67 -7 59 -153 98
-198 53z"/>
<path d="M422 2328 c-7 -7 -12 -29 -12 -51 0 -38 0 -38 38 -35 32 3 37 7 40
30 6 53 -34 88 -66 56z"/>
<path d="M4457 2293 c-4 -3 -7 -16 -7 -28 0 -21 3 -22 43 -14 23 4 47 9 52 9
6 1 -8 10 -30 20 -47 22 -49 22 -58 13z"/>
<path d="M578 1729 c-24 -14 -21 -62 7 -97 1 -1 16 3 33 9 38 13 41 35 11 73
-23 29 -26 30 -51 15z"/>
</g>
</svg>
