<svg xmlns="http://www.w3.org/2000/svg" xmlns:xlink="http://www.w3.org/1999/xlink" width="500" zoomAndPan="magnify" viewBox="0 0 375 374.999991" height="500" preserveAspectRatio="xMidYMid meet" version="1.0"><defs><clipPath id="337b5982aa"><path d="M 20.476562 52.164062 L 343.726562 52.164062 L 343.726562 162 L 20.476562 162 Z M 20.476562 52.164062 " clip-rule="nonzero"/></clipPath><clipPath id="2af747efe7"><path d="M 37 216 L 328 216 L 328 322.914062 L 37 322.914062 Z M 37 216 " clip-rule="nonzero"/></clipPath><clipPath id="e987b71cce"><path d="M 99 93.910156 L 265 93.910156 L 265 281 L 99 281 Z M 99 93.910156 " clip-rule="nonzero"/></clipPath><clipPath id="9daebf40c9"><path d="M 166.636719 188.664062 L 197.519531 188.664062 L 197.519531 228.070312 L 166.636719 228.070312 Z M 166.636719 188.664062 " clip-rule="nonzero"/></clipPath><clipPath id="6bf1f5f358"><path d="M 158.097656 180.125 L 206.042969 180.125 L 206.042969 228.070312 L 158.097656 228.070312 Z M 158.097656 180.125 " clip-rule="nonzero"/></clipPath></defs><g clip-path="url(#337b5982aa)"><path fill="#ffffff" d="M 82.121094 161.402344 L 102.699219 161.402344 L 102.699219 122.085938 L 182.066406 83.804688 L 261.707031 122.085938 L 261.707031 161.402344 L 343.65625 161.402344 L 290.226562 156.261719 L 290.226562 104.113281 L 287.917969 103.082031 L 183.863281 52.996094 L 182.066406 52.230469 L 180.273438 52.996094 L 76.488281 103.082031 L 74.175781 104.113281 L 74.175781 156.261719 L 20.476562 161.402344 Z M 82.121094 109.25 L 182.066406 61.207031 L 282.015625 109.25 L 282.015625 155.5 L 269.671875 154.222656 L 269.671875 116.972656 L 267.363281 115.9375 L 183.863281 75.589844 L 182.066406 74.828125 L 180.273438 75.589844 L 96.773438 115.917969 L 94.460938 116.949219 L 94.460938 154.199219 L 82.121094 155.476562 Z M 82.121094 109.25 " fill-opacity="1" fill-rule="nonzero"/></g><g clip-path="url(#2af747efe7)"><path fill="#ffffff" d="M 272.746094 216.132812 L 250.914062 216.132812 C 247.839844 223.828125 243.980469 231.28125 239.601562 238.234375 C 225.980469 260.585938 206.210938 279.078125 182.042969 291.417969 C 157.898438 279.078125 138.375 260.585938 124.488281 238.234375 C 120.109375 231.300781 116.519531 223.851562 113.175781 216.132812 L 37.171875 216.132812 L 84.453125 221.023438 C 89.34375 234.128906 95.496094 245.957031 102.699219 256.996094 C 122.488281 286.796875 150.472656 309.414062 180.542969 322.25 L 182.089844 322.765625 L 183.636719 322.25 C 213.707031 309.414062 241.960938 286.796875 261.480469 256.996094 C 268.933594 245.957031 275.101562 234.128906 279.726562 221.023438 L 327.007812 216.132812 Z M 254.773438 252.597656 C 236.28125 280.601562 210.074219 301.671875 182.066406 313.992188 C 154.0625 301.652344 127.851562 280.601562 109.363281 252.597656 C 103.191406 243.082031 97.804688 232.804688 93.699219 222.035156 L 107.566406 223.3125 C 110.394531 230 113.738281 236.417969 117.597656 242.589844 C 132.496094 266.734375 154.085938 286.527344 180.292969 299.632812 L 182.089844 300.664062 L 183.886719 299.632812 C 210.09375 286.527344 231.660156 266.757812 246.582031 242.589844 C 250.441406 236.417969 253.785156 230 256.613281 223.3125 L 270.75 222.035156 C 266.328125 232.828125 260.945312 243.105469 254.773438 252.597656 Z M 254.773438 252.597656 " fill-opacity="1" fill-rule="nonzero"/></g><g clip-path="url(#e987b71cce)"><path fill="#ffffff" d="M 264.730469 198.367188 L 264.730469 119.015625 C 264.730469 117.117188 263.804688 115.335938 262.246094 114.242188 C 235.59375 95.53125 208.910156 93.835938 182.097656 93.867188 C 155.453125 93.898438 128.78125 95.59375 101.980469 114.230469 C 100.414062 115.320312 99.480469 117.105469 99.480469 119.015625 C 99.480469 119.015625 99.480469 158.910156 99.480469 198.367188 C 99.480469 243.996094 136.472656 280.988281 182.105469 280.988281 L 182.105469 275.15625 C 182.105469 280.988281 182.105469 280.988281 182.105469 280.988281 C 227.738281 280.988281 264.730469 243.996094 264.730469 198.367188 Z M 253.070312 122.101562 C 229.496094 106.589844 205.8125 105.5 182.109375 105.527344 C 158.535156 105.554688 134.851562 106.652344 111.140625 122.121094 L 111.140625 198.367188 C 111.140625 237.558594 142.910156 269.328125 182.105469 269.328125 C 182.105469 269.328125 182.105469 275.15625 182.105469 275.15625 L 182.105469 269.328125 C 221.296875 269.328125 253.070312 237.558594 253.070312 198.367188 Z M 253.070312 122.101562 " fill-opacity="1" fill-rule="evenodd"/></g><path fill="#ffffff" d="M 218.652344 183.136719 C 218.652344 179.917969 216.042969 177.308594 212.824219 177.308594 L 151.386719 177.308594 C 148.167969 177.308594 145.558594 179.917969 145.558594 183.136719 L 145.558594 226.039062 C 145.558594 229.257812 148.167969 231.867188 151.386719 231.867188 L 212.824219 231.867188 C 216.042969 231.867188 218.652344 229.257812 218.652344 226.039062 Z M 218.652344 183.136719 " fill-opacity="1" fill-rule="evenodd"/><path fill="#ffffff" d="M 210.972656 171.855469 C 210.972656 164.199219 207.929688 156.855469 202.519531 151.445312 C 197.101562 146.03125 189.761719 142.988281 182.105469 142.988281 L 182.105469 148.816406 C 182.105469 142.988281 182.105469 142.988281 182.105469 142.988281 C 174.449219 142.988281 167.105469 146.03125 161.691406 151.445312 C 156.277344 156.855469 153.238281 164.199219 153.238281 171.855469 C 153.238281 178.085938 153.238281 183.136719 153.238281 183.136719 C 153.238281 186.359375 155.847656 188.96875 159.066406 188.96875 L 205.144531 188.96875 C 208.363281 188.96875 210.972656 186.359375 210.972656 183.136719 Z M 199.3125 177.308594 L 199.3125 171.855469 C 199.3125 167.292969 197.5 162.914062 194.273438 159.6875 C 191.046875 156.460938 186.667969 154.648438 182.105469 154.648438 L 182.105469 148.820312 L 182.105469 154.648438 C 177.539062 154.648438 173.164062 156.460938 169.9375 159.6875 C 166.710938 162.914062 164.898438 167.292969 164.898438 171.855469 L 164.898438 177.308594 Z M 199.3125 177.308594 " fill-opacity="1" fill-rule="evenodd"/><g clip-path="url(#9daebf40c9)"><path fill="#000000" d="M 188.660156 213.25 C 187.238281 212.871094 186.183594 211.726562 185.992188 210.328125 L 185.992188 210.320312 C 185.945312 209.984375 186.070312 209.652344 186.320312 209.425781 C 188.597656 207.351562 190.652344 203.980469 190.652344 200.175781 C 190.652344 193.871094 188.5 188.761719 182.070312 188.761719 C 175.640625 188.761719 173.488281 193.871094 173.488281 200.175781 C 173.488281 203.980469 175.542969 207.351562 177.820312 209.425781 C 178.070312 209.652344 178.195312 209.984375 178.148438 210.320312 L 178.148438 210.328125 C 177.957031 211.726562 176.902344 212.871094 175.480469 213.25 C 171.03125 214.429688 168.179688 217.113281 166.644531 220.402344 C 167.496094 221.597656 168.679688 222.492188 169.78125 223.457031 C 173.066406 226.328125 177.363281 228.070312 182.070312 228.070312 C 186.777344 228.070312 191.074219 226.328125 194.355469 223.457031 C 195.460938 222.492188 196.644531 221.597656 197.496094 220.402344 C 195.960938 217.113281 193.109375 214.429688 188.660156 213.25 " fill-opacity="1" fill-rule="nonzero"/></g><g clip-path="url(#6bf1f5f358)"><path fill="#000000" d="M 200.511719 216.570312 C 199.4375 218.15625 198.164062 219.597656 196.726562 220.855469 C 192.808594 224.285156 187.683594 226.359375 182.070312 226.359375 C 176.457031 226.359375 171.328125 224.285156 167.414062 220.855469 C 165.976562 219.597656 164.703125 218.15625 163.628906 216.570312 C 163.449219 216.308594 163.273438 216.039062 163.105469 215.765625 C 161.015625 212.375 159.808594 208.375 159.808594 204.097656 C 159.808594 201.046875 160.421875 198.136719 161.53125 195.488281 C 163.054688 191.859375 165.511719 188.71875 168.601562 186.367188 C 168.921875 186.125 169.25 185.890625 169.582031 185.664062 C 169.738281 185.558594 169.894531 185.457031 170.050781 185.355469 C 170.710938 184.929688 171.394531 184.539062 172.101562 184.183594 C 172.457031 184.007812 172.820312 183.835938 173.1875 183.675781 C 175.910156 182.492188 178.914062 181.832031 182.070312 181.832031 C 185.230469 181.832031 188.234375 182.492188 190.957031 183.679688 C 191.324219 183.835938 191.683594 184.007812 192.042969 184.1875 C 192.746094 184.539062 193.433594 184.929688 194.089844 185.355469 C 194.246094 185.453125 194.402344 185.554688 194.554688 185.660156 C 194.890625 185.886719 195.21875 186.125 195.539062 186.371094 C 200.882812 190.433594 204.335938 196.863281 204.335938 204.097656 C 204.335938 208.71875 202.925781 213.015625 200.511719 216.570312 Z M 199.023438 187.144531 C 197.398438 185.523438 195.582031 184.160156 193.625 183.082031 C 192.832031 182.644531 192.015625 182.25 191.179688 181.910156 C 190.511719 181.632812 189.832031 181.390625 189.140625 181.179688 C 186.878906 180.484375 184.5 180.125 182.070312 180.125 C 179.648438 180.125 177.265625 180.484375 174.996094 181.1875 C 174.304688 181.398438 173.625 181.640625 172.957031 181.917969 C 172.125 182.257812 171.308594 182.652344 170.515625 183.089844 C 169.875 183.441406 169.25 183.824219 168.636719 184.238281 C 164.765625 186.863281 161.761719 190.523438 159.957031 194.828125 C 158.722656 197.765625 158.097656 200.882812 158.097656 204.097656 C 158.097656 208.546875 159.328125 212.894531 161.652344 216.664062 C 162.035156 217.285156 162.445312 217.886719 162.878906 218.46875 C 163.882812 219.804688 165.023438 221.035156 166.289062 222.144531 C 166.941406 222.710938 167.617188 223.242188 168.320312 223.734375 C 172.328125 226.546875 177.125 228.070312 182.070312 228.070312 C 187.015625 228.070312 191.8125 226.546875 195.820312 223.734375 C 196.523438 223.242188 197.203125 222.710938 197.851562 222.144531 C 199.125 221.03125 200.265625 219.792969 201.261719 218.460938 C 204.339844 214.351562 206.042969 209.320312 206.042969 204.097656 C 206.042969 197.691406 203.550781 191.675781 199.023438 187.144531 " fill-opacity="1" fill-rule="nonzero"/></g><path fill="#000000" d="M 170.199219 192.4375 L 171.789062 192.4375 L 171.789062 189.75 L 174.476562 189.75 L 174.476562 188.160156 L 170.199219 188.160156 L 170.199219 192.4375 " fill-opacity="1" fill-rule="nonzero"/><path fill="#000000" d="M 189.664062 188.160156 L 189.664062 189.75 L 192.351562 189.75 L 192.351562 192.4375 L 193.941406 192.4375 L 193.941406 188.160156 L 189.664062 188.160156 " fill-opacity="1" fill-rule="nonzero"/><path fill="#000000" d="M 192.351562 208.765625 L 189.664062 208.765625 L 189.664062 210.355469 L 193.941406 210.355469 L 193.941406 206.078125 L 192.351562 206.078125 L 192.351562 208.765625 " fill-opacity="1" fill-rule="nonzero"/><path fill="#000000" d="M 171.789062 206.078125 L 170.199219 206.078125 L 170.199219 210.355469 L 174.476562 210.355469 L 174.476562 208.765625 L 171.789062 208.765625 L 171.789062 206.078125 " fill-opacity="1" fill-rule="nonzero"/><path fill="#ff2e2e" d="M 170.597656 198.464844 L 170.597656 200.050781 L 193.542969 200.050781 L 193.542969 198.464844 L 170.597656 198.464844 " fill-opacity="1" fill-rule="nonzero"/><path fill="#ff2e2e" d="M 172.1875 199.257812 C 172.1875 200.136719 171.476562 200.847656 170.597656 200.847656 C 169.71875 200.847656 169.007812 200.136719 169.007812 199.257812 C 169.007812 198.378906 169.71875 197.667969 170.597656 197.667969 C 171.476562 197.667969 172.1875 198.378906 172.1875 199.257812 " fill-opacity="1" fill-rule="nonzero"/><path fill="#ff2e2e" d="M 195.132812 199.257812 C 195.132812 200.136719 194.421875 200.847656 193.542969 200.847656 C 192.667969 200.847656 191.953125 200.136719 191.953125 199.257812 C 191.953125 198.378906 192.667969 197.667969 193.542969 197.667969 C 194.421875 197.667969 195.132812 198.378906 195.132812 199.257812 " fill-opacity="1" fill-rule="nonzero"/></svg>