<svg xmlns="http://www.w3.org/2000/svg" xmlns:xlink="http://www.w3.org/1999/xlink" width="500" zoomAndPan="magnify" viewBox="0 0 375 374.999991" height="500" preserveAspectRatio="xMidYMid meet" version="1.0"><defs><clipPath id="df98473fc5"><path d="M 20.476562 52.164062 L 343.726562 52.164062 L 343.726562 162 L 20.476562 162 Z M 20.476562 52.164062 " clip-rule="nonzero"/></clipPath><clipPath id="8733e2f23b"><path d="M 37 216 L 328 216 L 328 322.914062 L 37 322.914062 Z M 37 216 " clip-rule="nonzero"/></clipPath><clipPath id="867ef735e6"><path d="M 99 93.910156 L 265 93.910156 L 265 281.410156 L 99 281.410156 Z M 99 93.910156 " clip-rule="nonzero"/></clipPath><clipPath id="fe9e8162cc"><path d="M 166.636719 188.664062 L 197.519531 188.664062 L 197.519531 228.070312 L 166.636719 228.070312 Z M 166.636719 188.664062 " clip-rule="nonzero"/></clipPath><clipPath id="b4a9592f76"><path d="M 158.097656 180.125 L 206.042969 180.125 L 206.042969 228.070312 L 158.097656 228.070312 Z M 158.097656 180.125 " clip-rule="nonzero"/></clipPath></defs><g clip-path="url(#df98473fc5)"><path fill="#000000" d="M 82.132812 161.433594 L 102.714844 161.433594 L 102.714844 122.109375 L 182.101562 83.8125 L 261.757812 122.109375 L 261.757812 161.433594 L 343.726562 161.433594 L 290.285156 156.292969 L 290.285156 104.128906 L 287.976562 103.097656 L 183.898438 52.996094 L 182.101562 52.230469 L 180.308594 52.996094 L 76.5 103.097656 L 74.1875 104.128906 L 74.1875 156.292969 L 20.476562 161.433594 Z M 82.132812 109.269531 L 182.101562 61.210938 L 282.070312 109.269531 L 282.070312 155.53125 L 269.726562 154.25 L 269.726562 116.992188 L 267.414062 115.957031 L 183.898438 75.597656 L 182.101562 74.835938 L 180.308594 75.597656 L 96.789062 115.933594 L 94.476562 116.96875 L 94.476562 154.230469 L 82.132812 155.507812 Z M 82.132812 109.269531 " fill-opacity="1" fill-rule="nonzero"/></g><g clip-path="url(#8733e2f23b)"><path fill="#000000" d="M 272.800781 216.183594 L 250.964844 216.183594 C 247.886719 223.882812 244.027344 231.332031 239.652344 238.292969 C 226.027344 260.648438 206.253906 279.144531 182.078125 291.492188 C 157.929688 279.144531 138.402344 260.648438 124.507812 238.292969 C 120.132812 231.355469 116.542969 223.902344 113.195312 216.183594 L 37.175781 216.183594 L 84.46875 221.074219 C 89.359375 234.183594 95.511719 246.015625 102.714844 257.058594 C 122.511719 286.867188 150.5 309.492188 180.578125 322.332031 L 182.125 322.847656 L 183.671875 322.332031 C 213.75 309.492188 242.007812 286.867188 261.535156 257.058594 C 268.988281 246.015625 275.160156 234.183594 279.78125 221.074219 L 327.074219 216.183594 Z M 254.824219 252.660156 C 236.328125 280.671875 210.113281 301.75 182.101562 314.074219 C 154.089844 301.726562 127.875 280.671875 109.382812 252.660156 C 103.210938 243.140625 97.824219 232.859375 93.714844 222.085938 L 107.585938 223.367188 C 110.414062 230.054688 113.757812 236.472656 117.617188 242.648438 C 132.523438 266.800781 154.113281 286.597656 180.328125 299.707031 L 182.125 300.738281 L 183.921875 299.707031 C 210.136719 286.597656 231.707031 266.820312 246.632812 242.648438 C 250.492188 236.472656 253.835938 230.054688 256.664062 223.367188 L 270.804688 222.085938 C 266.382812 232.882812 260.996094 243.164062 254.824219 252.660156 Z M 254.824219 252.660156 " fill-opacity="1" fill-rule="nonzero"/></g><g clip-path="url(#867ef735e6)"><path fill="#000000" d="M 264.8125 198.550781 L 264.8125 119.058594 C 264.8125 117.15625 263.882812 115.371094 262.328125 114.277344 C 235.660156 95.535156 208.964844 93.835938 182.136719 93.867188 C 155.480469 93.898438 128.792969 95.597656 101.984375 114.265625 C 100.414062 115.355469 99.480469 117.148438 99.480469 119.058594 C 99.480469 119.058594 99.480469 159.023438 99.480469 198.550781 C 99.480469 244.257812 136.492188 281.316406 182.144531 281.316406 L 182.144531 275.476562 C 182.144531 281.316406 182.144531 281.316406 182.144531 281.316406 C 227.800781 281.316406 264.8125 244.257812 264.8125 198.550781 Z M 253.144531 122.152344 C 229.558594 106.609375 205.867188 105.519531 182.152344 105.546875 C 158.566406 105.578125 134.871094 106.675781 111.148438 122.167969 L 111.148438 198.550781 C 111.148438 237.808594 142.933594 269.636719 182.144531 269.636719 C 182.144531 269.636719 182.144531 275.476562 182.144531 275.476562 L 182.144531 269.636719 C 221.355469 269.636719 253.144531 237.808594 253.144531 198.550781 Z M 253.144531 122.152344 " fill-opacity="1" fill-rule="evenodd"/></g><path fill="#000000" d="M 218.710938 183.296875 C 218.710938 180.066406 216.097656 177.453125 212.878906 177.453125 L 151.414062 177.453125 C 148.191406 177.453125 145.582031 180.066406 145.582031 183.296875 L 145.582031 226.269531 C 145.582031 229.496094 148.191406 232.109375 151.414062 232.109375 L 212.878906 232.109375 C 216.097656 232.109375 218.710938 229.496094 218.710938 226.269531 Z M 218.710938 183.296875 " fill-opacity="1" fill-rule="evenodd"/><path fill="#000000" d="M 211.027344 171.992188 C 211.027344 164.324219 207.984375 156.96875 202.570312 151.546875 C 197.152344 146.121094 189.804688 143.074219 182.144531 143.074219 L 182.144531 148.914062 C 182.144531 143.074219 182.144531 143.074219 182.144531 143.074219 C 174.484375 143.074219 167.136719 146.121094 161.722656 151.546875 C 156.304688 156.96875 153.261719 164.324219 153.261719 171.992188 C 153.261719 178.230469 153.261719 183.296875 153.261719 183.296875 C 153.261719 186.519531 155.875 189.136719 159.097656 189.136719 L 205.195312 189.136719 C 208.417969 189.136719 211.027344 186.519531 211.027344 183.296875 Z M 199.363281 177.453125 L 199.363281 171.992188 C 199.363281 167.421875 197.546875 163.035156 194.320312 159.804688 C 191.089844 156.570312 186.710938 154.753906 182.144531 154.753906 L 182.144531 148.914062 L 182.144531 154.753906 C 177.578125 154.753906 173.199219 156.570312 169.972656 159.804688 C 166.742188 163.035156 164.929688 167.421875 164.929688 171.992188 L 164.929688 177.453125 Z M 199.363281 177.453125 " fill-opacity="1" fill-rule="evenodd"/><g clip-path="url(#fe9e8162cc)"><path fill="#ffffff" d="M 188.660156 213.25 C 187.238281 212.871094 186.183594 211.726562 185.992188 210.328125 L 185.992188 210.320312 C 185.945312 209.984375 186.070312 209.652344 186.320312 209.425781 C 188.597656 207.351562 190.652344 203.980469 190.652344 200.175781 C 190.652344 193.871094 188.5 188.761719 182.070312 188.761719 C 175.640625 188.761719 173.488281 193.871094 173.488281 200.175781 C 173.488281 203.980469 175.542969 207.351562 177.820312 209.425781 C 178.070312 209.652344 178.195312 209.984375 178.148438 210.320312 L 178.148438 210.328125 C 177.957031 211.726562 176.902344 212.871094 175.480469 213.25 C 171.03125 214.429688 168.179688 217.113281 166.644531 220.402344 C 167.496094 221.597656 168.679688 222.492188 169.78125 223.457031 C 173.066406 226.328125 177.363281 228.070312 182.070312 228.070312 C 186.777344 228.070312 191.074219 226.328125 194.355469 223.457031 C 195.460938 222.492188 196.644531 221.597656 197.496094 220.402344 C 195.960938 217.113281 193.109375 214.429688 188.660156 213.25 " fill-opacity="1" fill-rule="nonzero"/></g><g clip-path="url(#b4a9592f76)"><path fill="#ffffff" d="M 200.511719 216.570312 C 199.4375 218.15625 198.164062 219.597656 196.726562 220.855469 C 192.808594 224.285156 187.683594 226.359375 182.070312 226.359375 C 176.457031 226.359375 171.328125 224.285156 167.414062 220.855469 C 165.976562 219.597656 164.703125 218.15625 163.628906 216.570312 C 163.449219 216.308594 163.273438 216.039062 163.105469 215.765625 C 161.015625 212.375 159.808594 208.375 159.808594 204.097656 C 159.808594 201.046875 160.421875 198.136719 161.53125 195.488281 C 163.054688 191.859375 165.511719 188.71875 168.601562 186.367188 C 168.921875 186.125 169.25 185.890625 169.582031 185.664062 C 169.738281 185.558594 169.894531 185.457031 170.050781 185.355469 C 170.710938 184.929688 171.394531 184.539062 172.101562 184.183594 C 172.457031 184.007812 172.820312 183.835938 173.1875 183.675781 C 175.910156 182.492188 178.914062 181.832031 182.070312 181.832031 C 185.230469 181.832031 188.234375 182.492188 190.957031 183.679688 C 191.324219 183.835938 191.683594 184.007812 192.042969 184.1875 C 192.746094 184.539062 193.433594 184.929688 194.089844 185.355469 C 194.246094 185.453125 194.402344 185.554688 194.554688 185.660156 C 194.890625 185.886719 195.21875 186.125 195.539062 186.371094 C 200.882812 190.433594 204.335938 196.863281 204.335938 204.097656 C 204.335938 208.71875 202.925781 213.015625 200.511719 216.570312 Z M 199.023438 187.144531 C 197.398438 185.523438 195.582031 184.160156 193.625 183.082031 C 192.832031 182.644531 192.015625 182.25 191.179688 181.910156 C 190.511719 181.636719 189.832031 181.390625 189.140625 181.179688 C 186.878906 180.484375 184.5 180.125 182.070312 180.125 C 179.648438 180.125 177.265625 180.484375 174.996094 181.1875 C 174.304688 181.398438 173.625 181.640625 172.957031 181.917969 C 172.125 182.257812 171.308594 182.652344 170.515625 183.089844 C 169.875 183.441406 169.25 183.824219 168.636719 184.238281 C 164.765625 186.863281 161.761719 190.523438 159.957031 194.828125 C 158.722656 197.765625 158.097656 200.882812 158.097656 204.097656 C 158.097656 208.546875 159.328125 212.894531 161.652344 216.664062 C 162.035156 217.285156 162.445312 217.886719 162.878906 218.46875 C 163.882812 219.804688 165.023438 221.035156 166.289062 222.144531 C 166.941406 222.710938 167.617188 223.242188 168.320312 223.734375 C 172.328125 226.546875 177.125 228.070312 182.070312 228.070312 C 187.015625 228.070312 191.8125 226.546875 195.820312 223.734375 C 196.523438 223.242188 197.203125 222.710938 197.851562 222.144531 C 199.125 221.03125 200.265625 219.792969 201.261719 218.460938 C 204.339844 214.351562 206.042969 209.320312 206.042969 204.097656 C 206.042969 197.691406 203.550781 191.675781 199.023438 187.144531 " fill-opacity="1" fill-rule="nonzero"/></g><path fill="#ffffff" d="M 170.199219 192.4375 L 171.789062 192.4375 L 171.789062 189.75 L 174.476562 189.75 L 174.476562 188.160156 L 170.199219 188.160156 L 170.199219 192.4375 " fill-opacity="1" fill-rule="nonzero"/><path fill="#ffffff" d="M 189.664062 188.160156 L 189.664062 189.75 L 192.351562 189.75 L 192.351562 192.4375 L 193.941406 192.4375 L 193.941406 188.160156 L 189.664062 188.160156 " fill-opacity="1" fill-rule="nonzero"/><path fill="#ffffff" d="M 192.351562 208.765625 L 189.664062 208.765625 L 189.664062 210.355469 L 193.941406 210.355469 L 193.941406 206.078125 L 192.351562 206.078125 L 192.351562 208.765625 " fill-opacity="1" fill-rule="nonzero"/><path fill="#ffffff" d="M 171.789062 206.078125 L 170.199219 206.078125 L 170.199219 210.355469 L 174.476562 210.355469 L 174.476562 208.765625 L 171.789062 208.765625 L 171.789062 206.078125 " fill-opacity="1" fill-rule="nonzero"/><path fill="#ff2e2e" d="M 170.597656 198.464844 L 170.597656 200.050781 L 193.542969 200.050781 L 193.542969 198.464844 L 170.597656 198.464844 " fill-opacity="1" fill-rule="nonzero"/><path fill="#ff2e2e" d="M 172.1875 199.257812 C 172.1875 200.136719 171.476562 200.847656 170.597656 200.847656 C 169.71875 200.847656 169.007812 200.136719 169.007812 199.257812 C 169.007812 198.378906 169.71875 197.667969 170.597656 197.667969 C 171.476562 197.667969 172.1875 198.378906 172.1875 199.257812 " fill-opacity="1" fill-rule="nonzero"/><path fill="#ff2e2e" d="M 195.132812 199.257812 C 195.132812 200.136719 194.421875 200.847656 193.542969 200.847656 C 192.667969 200.847656 191.953125 200.136719 191.953125 199.257812 C 191.953125 198.378906 192.667969 197.667969 193.542969 197.667969 C 194.421875 197.667969 195.132812 198.378906 195.132812 199.257812 " fill-opacity="1" fill-rule="nonzero"/></svg>